<?xml version="1.0" standalone="no"?>
<!DOCTYPE svg PUBLIC "-//W3C//DTD SVG 20010904//EN"
 "http://www.w3.org/TR/2001/REC-SVG-20010904/DTD/svg10.dtd">
<svg version="1.0" xmlns="http://www.w3.org/2000/svg"
 width="2000.000000pt" height="2000.000000pt" viewBox="0 0 2000.000000 2000.000000"
 preserveAspectRatio="xMidYMid meet">
<metadata>
Created by potrace 1.11, written by Peter Selinger 2001-2013
</metadata>
<g transform="translate(0.000000,2000.000000) scale(0.100000,-0.100000)"
fill="#000000" stroke="none">
<path d="M11742 15616 c-57 -12 -106 -27 -110 -33 -4 -6 -25 -20 -47 -32 -67
-36 -102 -66 -158 -132 -76 -91 -101 -140 -131 -256 -26 -100 -26 -107 -26
-452 0 -193 -3 -351 -6 -351 -3 0 -61 40 -128 89 -162 118 -412 282 -566 369
-299 169 -715 357 -1015 456 -1209 402 -2422 417 -3642 46 -1150 -351 -2210
-1102 -2943 -2085 -213 -285 -368 -537 -534 -865 -145 -285 -228 -484 -326
-780 -157 -472 -249 -921 -292 -1430 -16 -191 -16 -664 0 -865 53 -654 206
-1281 458 -1877 64 -151 254 -526 339 -668 533 -896 1293 -1639 2188 -2139
747 -418 1539 -657 2427 -733 183 -15 680 -15 865 0 1139 97 2142 469 3044
1129 62 46 117 83 122 83 5 0 9 -115 9 -257 0 -254 1 -260 30 -367 16 -60 35
-116 43 -125 7 -9 19 -29 27 -45 23 -46 166 -185 213 -207 23 -11 54 -26 68
-34 15 -8 62 -23 105 -32 74 -17 249 -18 2914 -18 2665 0 2840 1 2914 18 43 9
90 24 105 31 14 8 46 25 70 37 59 30 177 151 222 227 20 33 46 98 58 144 l21
84 0 5275 0 5275 -23 90 c-24 88 -43 125 -113 217 -42 56 -142 142 -176 152
-13 4 -32 15 -43 25 -11 9 -67 27 -125 38 l-105 22 -2815 -1 -2815 -1 -103
-22z m-5785 -2823 c-3 -10 -5 -4 -5 12 0 17 2 24 5 18 2 -7 2 -21 0 -30z m-10
-145 c-3 -8 -6 -5 -6 6 -1 11 2 17 5 13 3 -3 4 -12 1 -19z m1761 -123 c854
-179 1482 -898 1529 -1751 l6 -112 71 -6 c441 -40 797 -368 866 -799 17 -105
8 -289 -20 -391 -89 -330 -347 -587 -681 -678 l-84 -23 -1955 0 -1955 0 -98
27 c-339 94 -616 315 -769 614 -207 404 -169 875 101 1244 61 83 212 226 301
284 123 81 258 137 438 183 33 8 35 12 73 128 182 554 605 996 1149 1198 118
43 278 84 407 102 157 23 465 13 621 -20z m-1771 -52 c-3 -10 -5 -4 -5 12 0
17 2 24 5 18 2 -7 2 -21 0 -30z m9358 -185 c235 -237 424 -660 539 -1206 33
-158 72 -415 90 -597 16 -157 36 -434 36 -488 0 -31 -7 -36 -170 -131 l-170
-100 -2 -1236 -3 -1236 -28 -42 c-78 -118 -235 -135 -333 -34 -69 71 -64 -131
-64 2644 0 1856 3 2508 11 2508 6 0 49 -37 94 -82z m-9368 40 c-3 -8 -6 -5 -6
6 -1 11 2 17 5 13 3 -3 4 -12 1 -19z m7463 -798 l0 -690 100 0 100 0 0 690 0
691 73 -3 72 -3 3 -687 2 -688 110 0 110 0 0 688 -1 687 45 3 44 3 7 -53 c3
-29 37 -426 75 -881 l68 -828 -175 -212 -175 -212 6 -145 c3 -80 24 -668 47
-1306 32 -926 38 -1170 29 -1205 -17 -63 -91 -132 -158 -149 -113 -27 -217 17
-268 114 l-28 53 18 704 c10 387 25 981 35 1319 l16 615 -36 40 c-19 22 -93
108 -164 190 -70 83 -137 160 -148 172 -19 21 -19 24 2 355 57 886 92 1404 96
1416 3 7 22 12 50 12 l45 0 0 -690z m-7473 638 c-3 -8 -6 -5 -6 6 -1 11 2 17
5 13 3 -3 4 -12 1 -19z m-10 -170 c-3 -8 -6 -5 -6 6 -1 11 2 17 5 13 3 -3 4
-12 1 -19z m4953 -3572 c0 -2 -16 -38 -35 -80 -50 -110 -99 -263 -126 -391
-19 -94 -23 -142 -23 -325 -1 -188 2 -229 22 -325 27 -128 86 -312 131 -406
17 -36 31 -69 31 -73 0 -4 -1313 -6 -2917 -3 -3198 4 -2981 0 -3076 62 -123
82 -206 232 -257 470 -27 124 -30 359 -6 505 42 262 155 458 303 528 l58 27
360 5 c410 7 5535 12 5535 6z m-5273 -1718 c-3 -7 -5 -2 -5 12 0 14 2 19 5 13
2 -7 2 -19 0 -25z"/>
</g>
</svg>
